<?xml version="1.0" encoding="UTF-8"?>
<!DOCTYPE svg PUBLIC "-//W3C//DTD SVG 1.1//EN" "http://www.w3.org/Graphics/SVG/1.1/DTD/svg11.dtd">
<!-- Creator: CorelDRAW (Versão de avaliação) -->
<svg xmlns="http://www.w3.org/2000/svg" xml:space="preserve" width="43.3492mm" height="43.3492mm" version="1.1" style="shape-rendering:geometricPrecision; text-rendering:geometricPrecision; image-rendering:optimizeQuality; fill-rule:evenodd; clip-rule:evenodd"
viewBox="0 0 4334.92 4334.92"
 xmlns:xlink="http://www.w3.org/1999/xlink"
 xmlns:xodm="http://www.corel.com/coreldraw/odm/2003">
 <defs>
  <style type="text/css">
   <![CDATA[
    .fil0 {fill:#0068DF}
    .fil1 {fill:white;fill-rule:nonzero}
   ]]>
  </style>
 </defs>
 <g id="Camada_x0020_1">
  <metadata id="CorelCorpID_0Corel-Layer"/>
  <g id="_105553224303232">
   <path class="fil0" d="M249.93 1644.22l1773.09 634.13c16.44,5.88 29.89,25.87 29.89,44.41l0 1166.22c0,18.55 -13.45,28.91 -29.89,23.03l-1773.09 -634.13c-16.44,-5.88 -29.89,-25.86 -29.89,-44.41l0 -1166.21c0,-18.55 13.45,-28.92 29.89,-23.04z"/>
   <path class="fil0" d="M4080.93 1601.59l-1888.33 675.31c-18.66,6.68 -33.95,29.38 -33.95,50.44l0 1157.06c0,21.07 15.29,32.84 33.95,26.16l1888.33 -675.31c18.65,-6.67 33.94,-29.38 33.94,-50.44l0 -1157.06c0,-21.06 -15.29,-32.83 -33.94,-26.16z"/>
   <path class="fil0" d="M2199.28 831.73c-638.69,233.2 -1229.68,444.09 -1869.75,675.29 -45.58,14.84 -34.8,43.9 4.19,52.02 253.15,84.38 506.33,168.79 759.48,253.17 72.61,31.45 77.16,13.24 127.87,-4.26l1829.79 -696.86 -771.48 -279.3c-34.11,-13.97 -41.67,-14.09 -80.1,-0.06z"/>
   <path class="fil0" d="M3185.63 1182.82l-1890.81 690.26c-52.06,15.61 -29.27,33.38 -8,42.15 262.05,93.56 510.5,182.32 772.56,275.9 0,0 48.19,19.76 93.9,-1.35 634.04,-226.9 1268.05,-453.79 1902.08,-680.7 23.79,-7.55 19.42,-28.54 -3.46,-33.41 -272.36,-98.49 -544.71,-196.99 -817.08,-295.49 -18.02,-7.27 -24.83,-7.02 -49.19,2.64z"/>
   <path class="fil1" d="M948 2198.57l0 699.96 -124.22 -45.8 0 -406.98 -140.52 245.18 -13.98 -5.16 -140.52 -348.79 0 406.97 -124.22 -45.8 0 -699.95 124.22 45.8 147.51 365.36 147.51 -256.58 124.22 45.79zm378.86 839.65l-102.48 -267.77 -59 -21.75 0 229.98 -124.22 -45.8 0 -699.96 217.38 80.15c51.76,19.09 95.75,58.64 131.99,118.67 36.23,60.02 54.34,123.36 54.34,190.02 0,42.67 -9.19,78.78 -27.56,108.33 -18.38,29.56 -42.57,48.8 -72.59,57.73l115.68 299.63 -133.54 -49.23zm-161.48 -609.51l0 179.99 93.16 34.35c17.08,6.3 31.71,3.03 43.87,-9.82 12.16,-12.85 18.24,-31.94 18.24,-57.27 0,-25.33 -6.08,-48.91 -18.24,-70.72 -12.16,-21.82 -26.79,-35.88 -43.87,-42.18l-93.16 -34.35zm706.49 110.5l0 153.99 -139.74 -51.52 0 545.96 -124.22 -45.8 0 -545.97 -139.75 -51.52 0 -153.98 403.71 148.84z"/>
  </g>
 </g>
</svg>
